STARTFONT 2.1
COMMENT AUTOMATICALLY GENERATED FILE. DO NOT EDIT!
COMMENT Generated with 'ucs2any.pl 12x13ja.bdf ../util/8859-8.TXT iso8859-8'
COMMENT from an ISO10646-1 encoded source BDF font.
COMMENT ucs2any.pl by Markus Kuhn <mkuhn@acm.org>, 2000.
COMMENT JIS X208 glyphs donated by T.Maebashi <maebashi@mcs.meitetsu.co.jp>
COMMENT Adapted and extended for ISO 10646-1 by Markus Kuhn <mkuhn@acm.org>
COMMENT This font was scaled down from a 14x14 source font
COMMENT Hangul glyphs prepared by Won-kyu Park <wkpark@chem.skku.ac.kr>
COMMENT from BAEKMUK font.
COMMENT Id: 12x13ja.bdf,v 1.23 2000-12-07 21:56:41+00 mgk25 Exp mgk25 $
FONT -Misc-Fixed-Medium-R-Normal-ja-13-120-75-75-C-120-iso8859-8
SIZE 12 75 75
FONTBOUNDINGBOX 12 13 0 -2
STARTPROPERTIES 21
FONTNAME_REGISTRY ""
FOUNDRY "Misc"
FAMILY_NAME "Fixed"
WEIGHT_NAME "Medium"
SLANT "R"
SETWIDTH_NAME "Normal"
ADD_STYLE_NAME "ja"
PIXEL_SIZE 13
POINT_SIZE 120
RESOLUTION_X 75
RESOLUTION_Y 75
SPACING "C"
AVERAGE_WIDTH 120
CHARSET_REGISTRY "iso8859"
CHARSET_ENCODING "8"
DEFAULT_CHAR 0
FONT_DESCENT 2
FONT_ASCENT 11
COPYRIGHT "Public domain font.  Share and enjoy."
CAP_HEIGHT 9
X_HEIGHT 7
ENDPROPERTIES
CHARS 185
STARTCHAR defaultchar
ENCODING 0
SWIDTH 960 0
DWIDTH 12 0
BBX 12 13 0 -2
BITMAP
0000
0000
AAA0
0000
8020
0000
8020
0000
8020
0000
AAA0
0000
0000
ENDCHAR
STARTCHAR uni25C6
ENCODING 1
SWIDTH 960 0
DWIDTH 12 0
BBX 12 13 0 -2
BITMAP
0000
0400
0E00
1F00
3F80
7FC0
FFE0
7FC0
3F80
1F00
0E00
0400
0000
ENDCHAR
STARTCHAR shade
ENCODING 2
SWIDTH 960 0
DWIDTH 12 0
BBX 12 13 0 -2
BITMAP
AAA0
5550
AAA0
5550
AAA0
5550
AAA0
5550
AAA0
5550
AAA0
5550
AAA0
ENDCHAR
STARTCHAR uni2409
ENCODING 3
SWIDTH 960 0
DWIDTH 12 0
BBX 12 13 0 -2
BITMAP
0000
4800
4800
7800
4BE0
4880
4880
4880
0080
0080
0080
0000
0000
ENDCHAR
STARTCHAR uni240C
ENCODING 4
SWIDTH 960 0
DWIDTH 12 0
BBX 12 13 0 -2
BITMAP
0000
7800
4000
4000
73C0
4200
4200
4380
0200
0200
0200
0000
0000
ENDCHAR
STARTCHAR uni240D
ENCODING 5
SWIDTH 960 0
DWIDTH 12 0
BBX 12 13 0 -2
BITMAP
0000
3000
4800
4000
4380
4240
4A40
3380
0240
0240
0240
0000
0000
ENDCHAR
STARTCHAR uni240A
ENCODING 6
SWIDTH 960 0
DWIDTH 12 0
BBX 12 13 0 -2
BITMAP
0000
4000
4000
4000
43C0
4200
4200
7B80
0200
0200
0200
0000
0000
ENDCHAR
STARTCHAR degree
ENCODING 7
SWIDTH 960 0
DWIDTH 12 0
BBX 12 13 0 -2
BITMAP
0000
0000
1800
2400
2400
1800
0000
0000
0000
0000
0000
0000
0000
ENDCHAR
STARTCHAR plusminus
ENCODING 8
SWIDTH 960 0
DWIDTH 12 0
BBX 12 13 0 -2
BITMAP
0000
0000
0400
0400
0400
7FC0
0400
0400
0400
0000
7FC0
0000
0000
ENDCHAR
STARTCHAR uni2424
ENCODING 9
SWIDTH 960 0
DWIDTH 12 0
BBX 12 13 0 -2
BITMAP
0000
4800
4800
6800
5A00
4A00
4A00
4A00
0200
0200
03C0
0000
0000
ENDCHAR
STARTCHAR uni240B
ENCODING 10
SWIDTH 960 0
DWIDTH 12 0
BBX 12 13 0 -2
BITMAP
0000
8800
8800
8800
53E0
5080
2080
2080
0080
0080
0080
0000
0000
ENDCHAR
STARTCHAR SF040000
ENCODING 11
SWIDTH 960 0
DWIDTH 12 0
BBX 12 13 0 -2
BITMAP
0200
0200
0200
0200
0200
0200
FE00
0000
0000
0000
0000
0000
0000
ENDCHAR
STARTCHAR SF030000
ENCODING 12
SWIDTH 960 0
DWIDTH 12 0
BBX 12 13 0 -2
BITMAP
0000
0000
0000
0000
0000
0000
FE00
0200
0200
0200
0200
0200
0200
ENDCHAR
STARTCHAR SF010000
ENCODING 13
SWIDTH 960 0
DWIDTH 12 0
BBX 12 13 0 -2
BITMAP
0000
0000
0000
0000
0000
0000
03F0
0200
0200
0200
0200
0200
0200
ENDCHAR
STARTCHAR SF020000
ENCODING 14
SWIDTH 960 0
DWIDTH 12 0
BBX 12 13 0 -2
BITMAP
0200
0200
0200
0200
0200
0200
03F0
0000
0000
0000
0000
0000
0000
ENDCHAR
STARTCHAR SF050000
ENCODING 15
SWIDTH 960 0
DWIDTH 12 0
BBX 12 13 0 -2
BITMAP
0200
0200
0200
0200
0200
0200
FFF0
0200
0200
0200
0200
0200
0200
ENDCHAR
STARTCHAR uni23BA
ENCODING 16
SWIDTH 960 0
DWIDTH 12 0
BBX 12 13 0 -2
BITMAP
FFF0
0000
0000
0000
0000
0000
0000
0000
0000
0000
0000
0000
0000
ENDCHAR
STARTCHAR uni23BB
ENCODING 17
SWIDTH 960 0
DWIDTH 12 0
BBX 12 13 0 -2
BITMAP
0000
0000
0000
FFF0
0000
0000
0000
0000
0000
0000
0000
0000
0000
ENDCHAR
STARTCHAR SF100000
ENCODING 18
SWIDTH 960 0
DWIDTH 12 0
BBX 12 13 0 -2
BITMAP
0000
0000
0000
0000
0000
0000
FFF0
0000
0000
0000
0000
0000
0000
ENDCHAR
STARTCHAR uni23BC
ENCODING 19
SWIDTH 960 0
DWIDTH 12 0
BBX 12 13 0 -2
BITMAP
0000
0000
0000
0000
0000
0000
0000
0000
0000
FFF0
0000
0000
0000
ENDCHAR
STARTCHAR uni23BD
ENCODING 20
SWIDTH 960 0
DWIDTH 12 0
BBX 12 13 0 -2
BITMAP
0000
0000
0000
0000
0000
0000
0000
0000
0000
0000
0000
0000
FFF0
ENDCHAR
STARTCHAR SF080000
ENCODING 21
SWIDTH 960 0
DWIDTH 12 0
BBX 12 13 0 -2
BITMAP
0200
0200
0200
0200
0200
0200
03F0
0200
0200
0200
0200
0200
0200
ENDCHAR
STARTCHAR SF090000
ENCODING 22
SWIDTH 960 0
DWIDTH 12 0
BBX 12 13 0 -2
BITMAP
0200
0200
0200
0200
0200
0200
FE00
0200
0200
0200
0200
0200
0200
ENDCHAR
STARTCHAR SF070000
ENCODING 23
SWIDTH 960 0
DWIDTH 12 0
BBX 12 13 0 -2
BITMAP
0200
0200
0200
0200
0200
0200
FFF0
0000
0000
0000
0000
0000
0000
ENDCHAR
STARTCHAR SF060000
ENCODING 24
SWIDTH 960 0
DWIDTH 12 0
BBX 12 13 0 -2
BITMAP
0000
0000
0000
0000
0000
0000
FFF0
0200
0200
0200
0200
0200
0200
ENDCHAR
STARTCHAR SF110000
ENCODING 25
SWIDTH 960 0
DWIDTH 12 0
BBX 12 13 0 -2
BITMAP
0200
0200
0200
0200
0200
0200
0200
0200
0200
0200
0200
0200
0200
ENDCHAR
STARTCHAR lessequal
ENCODING 26
SWIDTH 960 0
DWIDTH 12 0
BBX 12 13 0 -2
BITMAP
0000
0000
00C0
0300
0C00
3000
0C00
0300
00C0
0000
3FC0
0000
0000
ENDCHAR
STARTCHAR greaterequal
ENCODING 27
SWIDTH 960 0
DWIDTH 12 0
BBX 12 13 0 -2
BITMAP
0000
0000
3000
0C00
0300
00C0
0300
0C00
3000
0000
3FC0
0000
0000
ENDCHAR
STARTCHAR pi
ENCODING 28
SWIDTH 960 0
DWIDTH 12 0
BBX 12 13 0 -2
BITMAP
0000
0000
0000
0000
3FC0
5100
1100
1100
2200
2200
6300
0000
0000
ENDCHAR
STARTCHAR notequal
ENCODING 29
SWIDTH 960 0
DWIDTH 12 0
BBX 12 13 0 -2
BITMAP
0000
0000
0200
0200
7FC0
0400
0400
0400
7FC0
0800
0800
0000
0000
ENDCHAR
STARTCHAR sterling
ENCODING 30
SWIDTH 960 0
DWIDTH 12 0
BBX 12 13 0 -2
BITMAP
0000
0380
06C0
0CC0
0C00
0C00
3F80
0C00
3C20
4E40
3980
0000
0000
ENDCHAR
STARTCHAR periodcentered
ENCODING 31
SWIDTH 960 0
DWIDTH 12 0
BBX 12 13 0 -2
BITMAP
0000
0000
0000
0000
0000
0000
0600
0600
0000
0000
0000
0000
0000
ENDCHAR
STARTCHAR space
ENCODING 32
SWIDTH 960 0
DWIDTH 12 0
BBX 12 13 0 -2
BITMAP
0000
0000
0000
0000
0000
0000
0000
0000
0000
0000
0000
0000
0000
ENDCHAR
STARTCHAR exclam
ENCODING 33
SWIDTH 960 0
DWIDTH 12 0
BBX 12 13 0 -2
BITMAP
0000
0400
0E00
0E00
0E00
0E00
0400
0400
0000
0400
0E00
0400
0000
ENDCHAR
STARTCHAR quotedbl
ENCODING 34
SWIDTH 960 0
DWIDTH 12 0
BBX 12 13 0 -2
BITMAP
0000
1980
1980
1980
1100
0000
0000
0000
0000
0000
0000
0000
0000
ENDCHAR
STARTCHAR numbersign
ENCODING 35
SWIDTH 960 0
DWIDTH 12 0
BBX 12 13 0 -2
BITMAP
0000
0880
0880
3FC0
1100
1100
1100
1100
7F80
2200
2200
2200
0000
ENDCHAR
STARTCHAR dollar
ENCODING 36
SWIDTH 960 0
DWIDTH 12 0
BBX 12 13 0 -2
BITMAP
0000
0400
1F00
2480
2580
3C00
0F00
0580
3480
2480
1F00
0400
0000
ENDCHAR
STARTCHAR percent
ENCODING 37
SWIDTH 960 0
DWIDTH 12 0
BBX 12 13 0 -2
BITMAP
0000
3820
6C40
6C80
6D00
3A00
05C0
0B60
1360
2360
41C0
0000
0000
ENDCHAR
STARTCHAR ampersand
ENCODING 38
SWIDTH 960 0
DWIDTH 12 0
BBX 12 13 0 -2
BITMAP
0000
1C00
3200
3200
3C00
19C0
3880
6D80
6300
6700
38C0
0000
0000
ENDCHAR
STARTCHAR quotesingle
ENCODING 39
SWIDTH 960 0
DWIDTH 12 0
BBX 12 13 0 -2
BITMAP
0000
0C00
0C00
0C00
0800
0000
0000
0000
0000
0000
0000
0000
0000
ENDCHAR
STARTCHAR parenleft
ENCODING 40
SWIDTH 960 0
DWIDTH 12 0
BBX 12 13 0 -2
BITMAP
0000
0080
0100
0300
0200
0600
0600
0600
0200
0300
0100
0080
0000
ENDCHAR
STARTCHAR parenright
ENCODING 41
SWIDTH 960 0
DWIDTH 12 0
BBX 12 13 0 -2
BITMAP
0000
2000
1000
1800
0800
0C00
0C00
0C00
0800
1800
1000
2000
0000
ENDCHAR
STARTCHAR asterisk
ENCODING 42
SWIDTH 960 0
DWIDTH 12 0
BBX 12 13 0 -2
BITMAP
0000
0400
0E00
2480
75C0
0E00
0E00
75C0
2480
0E00
0400
0000
0000
ENDCHAR
STARTCHAR plus
ENCODING 43
SWIDTH 960 0
DWIDTH 12 0
BBX 12 13 0 -2
BITMAP
0000
0000
0400
0400
0400
0400
7FC0
0400
0400
0400
0400
0000
0000
ENDCHAR
STARTCHAR comma
ENCODING 44
SWIDTH 960 0
DWIDTH 12 0
BBX 12 13 0 -2
BITMAP
0000
0000
0000
0000
0000
0000
0000
0000
3000
3000
1000
2000
0000
ENDCHAR
STARTCHAR hyphen
ENCODING 45
SWIDTH 960 0
DWIDTH 12 0
BBX 12 13 0 -2
BITMAP
0000
0000
0000
0000
0000
0000
7FC0
0000
0000
0000
0000
0000
0000
ENDCHAR
STARTCHAR period
ENCODING 46
SWIDTH 960 0
DWIDTH 12 0
BBX 12 13 0 -2
BITMAP
0000
0000
0000
0000
0000
0000
0000
0000
0000
3000
3000
0000
0000
ENDCHAR
STARTCHAR slash
ENCODING 47
SWIDTH 960 0
DWIDTH 12 0
BBX 12 13 0 -2
BITMAP
0000
0060
00E0
01C0
0380
0700
0E00
1C00
3800
7000
6000
0000
0000
ENDCHAR
STARTCHAR zero
ENCODING 48
SWIDTH 960 0
DWIDTH 12 0
BBX 12 13 0 -2
BITMAP
0000
0000
0E00
3180
60C0
60C0
60C0
60C0
60C0
3180
0E00
0000
0000
ENDCHAR
STARTCHAR one
ENCODING 49
SWIDTH 960 0
DWIDTH 12 0
BBX 12 13 0 -2
BITMAP
0000
0000
0200
0600
0E00
0600
0600
0600
0600
0600
0F00
0000
0000
ENDCHAR
STARTCHAR two
ENCODING 50
SWIDTH 960 0
DWIDTH 12 0
BBX 12 13 0 -2
BITMAP
0000
0000
0F00
1180
38C0
1980
0100
0200
0440
0F80
1F80
0000
0000
ENDCHAR
STARTCHAR three
ENCODING 51
SWIDTH 960 0
DWIDTH 12 0
BBX 12 13 0 -2
BITMAP
0000
0000
0F00
1180
30C0
0180
0700
0080
30C0
1180
0F00
0000
0000
ENDCHAR
STARTCHAR four
ENCODING 52
SWIDTH 960 0
DWIDTH 12 0
BBX 12 13 0 -2
BITMAP
0000
0000
0180
0380
0580
0980
1180
3180
3FC0
0180
03C0
0000
0000
ENDCHAR
STARTCHAR five
ENCODING 53
SWIDTH 960 0
DWIDTH 12 0
BBX 12 13 0 -2
BITMAP
0000
0000
1F80
1F00
1000
1F00
0180
00C0
00C0
3180
1F00
0000
0000
ENDCHAR
STARTCHAR six
ENCODING 54
SWIDTH 960 0
DWIDTH 12 0
BBX 12 13 0 -2
BITMAP
0000
0000
0F00
1180
3000
2F00
7180
60C0
60C0
3180
1F00
0000
0000
ENDCHAR
STARTCHAR seven
ENCODING 55
SWIDTH 960 0
DWIDTH 12 0
BBX 12 13 0 -2
BITMAP
0000
0000
1FC0
1F80
2100
0100
0200
0200
0600
0600
0600
0000
0000
ENDCHAR
STARTCHAR eight
ENCODING 56
SWIDTH 960 0
DWIDTH 12 0
BBX 12 13 0 -2
BITMAP
0000
0000
0F00
1080
38C0
1D80
0F00
1B80
31C0
1080
0F00
0000
0000
ENDCHAR
STARTCHAR nine
ENCODING 57
SWIDTH 960 0
DWIDTH 12 0
BBX 12 13 0 -2
BITMAP
0000
0000
0600
1980
30C0
30C0
19C0
0EC0
0080
3100
1E00
0000
0000
ENDCHAR
STARTCHAR colon
ENCODING 58
SWIDTH 960 0
DWIDTH 12 0
BBX 12 13 0 -2
BITMAP
0000
0000
0000
0000
0600
0600
0000
0000
0600
0600
0000
0000
0000
ENDCHAR
STARTCHAR semicolon
ENCODING 59
SWIDTH 960 0
DWIDTH 12 0
BBX 12 13 0 -2
BITMAP
0000
0000
0000
0000
0600
0600
0000
0000
0600
0600
0200
0400
0000
ENDCHAR
STARTCHAR less
ENCODING 60
SWIDTH 960 0
DWIDTH 12 0
BBX 12 13 0 -2
BITMAP
0000
0040
0180
0200
0C00
1000
2000
1000
0C00
0200
0180
0040
0000
ENDCHAR
STARTCHAR equal
ENCODING 61
SWIDTH 960 0
DWIDTH 12 0
BBX 12 13 0 -2
BITMAP
0000
0000
0000
0000
7FC0
0000
0000
0000
7FC0
0000
0000
0000
0000
ENDCHAR
STARTCHAR greater
ENCODING 62
SWIDTH 960 0
DWIDTH 12 0
BBX 12 13 0 -2
BITMAP
0000
2000
1800
0400
0300
0080
0040
0080
0300
0400
1800
2000
0000
ENDCHAR
STARTCHAR question
ENCODING 63
SWIDTH 960 0
DWIDTH 12 0
BBX 12 13 0 -2
BITMAP
0000
0E00
1300
2180
3180
3300
0200
0400
0400
0000
0600
0600
0000
ENDCHAR
STARTCHAR at
ENCODING 64
SWIDTH 960 0
DWIDTH 12 0
BBX 12 13 0 -2
BITMAP
0000
0700
18C0
2720
29A0
49A0
5120
5340
4E80
2020
1FC0
0000
0000
ENDCHAR
STARTCHAR A
ENCODING 65
SWIDTH 960 0
DWIDTH 12 0
BBX 12 13 0 -2
BITMAP
0000
0000
0200
0200
0700
0900
0980
1080
1FC0
2040
70E0
0000
0000
ENDCHAR
STARTCHAR B
ENCODING 66
SWIDTH 960 0
DWIDTH 12 0
BBX 12 13 0 -2
BITMAP
0000
0000
7E00
3180
3180
3180
3F00
3080
30C0
30C0
7F80
0000
0000
ENDCHAR
STARTCHAR C
ENCODING 67
SWIDTH 960 0
DWIDTH 12 0
BBX 12 13 0 -2
BITMAP
0000
0000
0740
18C0
3040
3000
3000
3000
3000
1840
0F80
0000
0000
ENDCHAR
STARTCHAR D
ENCODING 68
SWIDTH 960 0
DWIDTH 12 0
BBX 12 13 0 -2
BITMAP
0000
0000
7E00
3180
30C0
30C0
30C0
30C0
30C0
3180
7E00
0000
0000
ENDCHAR
STARTCHAR E
ENCODING 69
SWIDTH 960 0
DWIDTH 12 0
BBX 12 13 0 -2
BITMAP
0000
0000
7F80
3080
3000
3100
3F00
3100
3000
3040
7F80
0000
0000
ENDCHAR
STARTCHAR F
ENCODING 70
SWIDTH 960 0
DWIDTH 12 0
BBX 12 13 0 -2
BITMAP
0000
0000
3FC0
1840
1800
1880
1F80
1880
1800
1800
3E00
0000
0000
ENDCHAR
STARTCHAR G
ENCODING 71
SWIDTH 960 0
DWIDTH 12 0
BBX 12 13 0 -2
BITMAP
0000
0000
0E80
3180
6000
6000
63C0
6180
6180
3180
1F00
0000
0000
ENDCHAR
STARTCHAR H
ENCODING 72
SWIDTH 960 0
DWIDTH 12 0
BBX 12 13 0 -2
BITMAP
0000
0000
79E0
30C0
30C0
30C0
3FC0
30C0
30C0
30C0
79E0
0000
0000
ENDCHAR
STARTCHAR I
ENCODING 73
SWIDTH 960 0
DWIDTH 12 0
BBX 12 13 0 -2
BITMAP
0000
0000
1F80
0600
0600
0600
0600
0600
0600
0600
1F80
0000
0000
ENDCHAR
STARTCHAR J
ENCODING 74
SWIDTH 960 0
DWIDTH 12 0
BBX 12 13 0 -2
BITMAP
0000
0000
07C0
0180
0180
0180
0180
6180
6180
6300
3E00
0000
0000
ENDCHAR
STARTCHAR K
ENCODING 75
SWIDTH 960 0
DWIDTH 12 0
BBX 12 13 0 -2
BITMAP
0000
0000
79E0
3080
3100
3300
3580
3980
30C0
30C0
79E0
0000
0000
ENDCHAR
STARTCHAR L
ENCODING 76
SWIDTH 960 0
DWIDTH 12 0
BBX 12 13 0 -2
BITMAP
0000
0000
7C00
3000
3000
3000
3000
3000
3000
3040
7F80
0000
0000
ENDCHAR
STARTCHAR M
ENCODING 77
SWIDTH 960 0
DWIDTH 12 0
BBX 12 13 0 -2
BITMAP
0000
0000
61C0
3180
3180
3B80
3B80
2D80
2D80
2580
71C0
0000
0000
ENDCHAR
STARTCHAR N
ENCODING 78
SWIDTH 960 0
DWIDTH 12 0
BBX 12 13 0 -2
BITMAP
0000
0000
31C0
1880
1C80
1680
1680
1380
1180
1080
39C0
0000
0000
ENDCHAR
STARTCHAR O
ENCODING 79
SWIDTH 960 0
DWIDTH 12 0
BBX 12 13 0 -2
BITMAP
0000
0000
0E00
3180
60C0
60C0
60C0
60C0
60C0
3180
1F00
0000
0000
ENDCHAR
STARTCHAR P
ENCODING 80
SWIDTH 960 0
DWIDTH 12 0
BBX 12 13 0 -2
BITMAP
0000
0000
3F00
18C0
18C0
18C0
1F00
1800
1800
1800
3C00
0000
0000
ENDCHAR
STARTCHAR Q
ENCODING 81
SWIDTH 960 0
DWIDTH 12 0
BBX 12 13 0 -2
BITMAP
0000
0000
0E00
3180
60C0
60C0
60C0
60C0
6CC0
3380
1F80
00C0
0000
ENDCHAR
STARTCHAR R
ENCODING 82
SWIDTH 960 0
DWIDTH 12 0
BBX 12 13 0 -2
BITMAP
0000
0000
7E00
3180
3180
3180
3E00
3300
3180
3180
7BC0
0000
0000
ENDCHAR
STARTCHAR S
ENCODING 83
SWIDTH 960 0
DWIDTH 12 0
BBX 12 13 0 -2
BITMAP
0000
0000
0E80
1180
3080
1C00
0F00
0380
20C0
30C0
2F80
0000
0000
ENDCHAR
STARTCHAR T
ENCODING 84
SWIDTH 960 0
DWIDTH 12 0
BBX 12 13 0 -2
BITMAP
0000
0000
3FC0
2640
0600
0600
0600
0600
0600
0600
0F00
0000
0000
ENDCHAR
STARTCHAR U
ENCODING 85
SWIDTH 960 0
DWIDTH 12 0
BBX 12 13 0 -2
BITMAP
0000
0000
78E0
3040
3040
3040
3040
3040
3040
1880
0F00
0000
0000
ENDCHAR
STARTCHAR V
ENCODING 86
SWIDTH 960 0
DWIDTH 12 0
BBX 12 13 0 -2
BITMAP
0000
0000
78E0
3040
1840
1880
0C80
0D00
0700
0600
0200
0000
0000
ENDCHAR
STARTCHAR W
ENCODING 87
SWIDTH 960 0
DWIDTH 12 0
BBX 12 13 0 -2
BITMAP
0000
0000
EE60
6640
6640
37C0
3B80
3B80
1980
1980
1980
0000
0000
ENDCHAR
STARTCHAR X
ENCODING 88
SWIDTH 960 0
DWIDTH 12 0
BBX 12 13 0 -2
BITMAP
0000
0000
79C0
3100
1A00
0C00
0C00
0E00
1300
2180
63C0
0000
0000
ENDCHAR
STARTCHAR Y
ENCODING 89
SWIDTH 960 0
DWIDTH 12 0
BBX 12 13 0 -2
BITMAP
0000
0000
7BC0
3100
1A00
0C00
0C00
0C00
0C00
0C00
1E00
0000
0000
ENDCHAR
STARTCHAR Z
ENCODING 90
SWIDTH 960 0
DWIDTH 12 0
BBX 12 13 0 -2
BITMAP
0000
0000
7F80
4300
0600
0600
0C00
1800
1800
3040
7F80
0000
0000
ENDCHAR
STARTCHAR bracketleft
ENCODING 91
SWIDTH 960 0
DWIDTH 12 0
BBX 12 13 0 -2
BITMAP
0000
0780
0600
0600
0600
0600
0600
0600
0600
0600
0600
0780
0000
ENDCHAR
STARTCHAR backslash
ENCODING 92
SWIDTH 960 0
DWIDTH 12 0
BBX 12 13 0 -2
BITMAP
0000
6000
7000
3800
1C00
0E00
0700
0380
01C0
00E0
0060
0000
0000
ENDCHAR
STARTCHAR bracketright
ENCODING 93
SWIDTH 960 0
DWIDTH 12 0
BBX 12 13 0 -2
BITMAP
0000
3C00
0C00
0C00
0C00
0C00
0C00
0C00
0C00
0C00
0C00
3C00
0000
ENDCHAR
STARTCHAR asciicircum
ENCODING 94
SWIDTH 960 0
DWIDTH 12 0
BBX 12 13 0 -2
BITMAP
0000
0600
0F00
1080
0000
0000
0000
0000
0000
0000
0000
0000
0000
ENDCHAR
STARTCHAR underscore
ENCODING 95
SWIDTH 960 0
DWIDTH 12 0
BBX 12 13 0 -2
BITMAP
0000
0000
0000
0000
0000
0000
0000
0000
0000
0000
0000
FFF0
0000
ENDCHAR
STARTCHAR grave
ENCODING 96
SWIDTH 960 0
DWIDTH 12 0
BBX 12 13 0 -2
BITMAP
0000
0C00
0600
0100
0000
0000
0000
0000
0000
0000
0000
0000
0000
ENDCHAR
STARTCHAR a
ENCODING 97
SWIDTH 960 0
DWIDTH 12 0
BBX 12 13 0 -2
BITMAP
0000
0000
0000
0000
1E00
3300
3180
0F80
3180
6380
3CC0
0000
0000
ENDCHAR
STARTCHAR b
ENCODING 98
SWIDTH 960 0
DWIDTH 12 0
BBX 12 13 0 -2
BITMAP
0000
0000
3800
1800
1B00
1D80
18C0
18C0
18C0
1CC0
3B80
0000
0000
ENDCHAR
STARTCHAR c
ENCODING 99
SWIDTH 960 0
DWIDTH 12 0
BBX 12 13 0 -2
BITMAP
0000
0000
0000
0000
0700
18C0
3040
3000
3040
18C0
0700
0000
0000
ENDCHAR
STARTCHAR d
ENCODING 100
SWIDTH 960 0
DWIDTH 12 0
BBX 12 13 0 -2
BITMAP
0000
0000
0380
0180
0D80
3380
6180
6180
6180
3380
1DC0
0000
0000
ENDCHAR
STARTCHAR e
ENCODING 101
SWIDTH 960 0
DWIDTH 12 0
BBX 12 13 0 -2
BITMAP
0000
0000
0000
0000
0F00
1880
30C0
3FC0
3000
1840
0F80
0000
0000
ENDCHAR
STARTCHAR f
ENCODING 102
SWIDTH 960 0
DWIDTH 12 0
BBX 12 13 0 -2
BITMAP
0000
0000
0700
0980
1800
3F00
1800
1800
1800
1800
3E00
0000
0000
ENDCHAR
STARTCHAR g
ENCODING 103
SWIDTH 960 0
DWIDTH 12 0
BBX 12 13 0 -2
BITMAP
0000
0000
0000
0000
0FC0
1980
1180
1100
0E00
1F80
31C0
1040
0F80
ENDCHAR
STARTCHAR h
ENCODING 104
SWIDTH 960 0
DWIDTH 12 0
BBX 12 13 0 -2
BITMAP
0000
0000
7000
3000
3600
3B00
3180
3180
3180
3180
7BC0
0000
0000
ENDCHAR
STARTCHAR i
ENCODING 105
SWIDTH 960 0
DWIDTH 12 0
BBX 12 13 0 -2
BITMAP
0000
0200
0700
0200
0000
1E00
0600
0600
0600
0600
1F80
0000
0000
ENDCHAR
STARTCHAR j
ENCODING 106
SWIDTH 960 0
DWIDTH 12 0
BBX 12 13 0 -2
BITMAP
0000
0200
0700
0200
0000
1F00
0300
0300
0300
0300
1300
3200
1C00
ENDCHAR
STARTCHAR k
ENCODING 107
SWIDTH 960 0
DWIDTH 12 0
BBX 12 13 0 -2
BITMAP
0000
0000
7000
3000
3180
3300
3600
3F00
3300
3180
79C0
0000
0000
ENDCHAR
STARTCHAR l
ENCODING 108
SWIDTH 960 0
DWIDTH 12 0
BBX 12 13 0 -2
BITMAP
0000
0000
1E00
0600
0600
0600
0600
0600
0600
0600
1F80
0000
0000
ENDCHAR
STARTCHAR m
ENCODING 109
SWIDTH 960 0
DWIDTH 12 0
BBX 12 13 0 -2
BITMAP
0000
0000
0000
0000
6D80
36C0
36C0
36C0
36C0
36C0
76E0
0000
0000
ENDCHAR
STARTCHAR n
ENCODING 110
SWIDTH 960 0
DWIDTH 12 0
BBX 12 13 0 -2
BITMAP
0000
0000
0000
0000
7700
3980
3180
3180
3180
3180
7BC0
0000
0000
ENDCHAR
STARTCHAR o
ENCODING 111
SWIDTH 960 0
DWIDTH 12 0
BBX 12 13 0 -2
BITMAP
0000
0000
0000
0000
0F00
1980
30C0
30C0
30C0
1980
0F00
0000
0000
ENDCHAR
STARTCHAR p
ENCODING 112
SWIDTH 960 0
DWIDTH 12 0
BBX 12 13 0 -2
BITMAP
0000
0000
0000
0000
3B00
1C80
18C0
18C0
18C0
1C80
1B00
1800
3C00
ENDCHAR
STARTCHAR q
ENCODING 113
SWIDTH 960 0
DWIDTH 12 0
BBX 12 13 0 -2
BITMAP
0000
0000
0000
0000
0DC0
1380
3180
3180
3180
1380
0D80
0180
03C0
ENDCHAR
STARTCHAR r
ENCODING 114
SWIDTH 960 0
DWIDTH 12 0
BBX 12 13 0 -2
BITMAP
0000
0000
0000
0000
3B00
1D80
1880
1800
1800
1800
3C00
0000
0000
ENDCHAR
STARTCHAR s
ENCODING 115
SWIDTH 960 0
DWIDTH 12 0
BBX 12 13 0 -2
BITMAP
0000
0000
0000
0000
1F80
3080
3000
1F80
00C0
30C0
2F80
0000
0000
ENDCHAR
STARTCHAR t
ENCODING 116
SWIDTH 960 0
DWIDTH 12 0
BBX 12 13 0 -2
BITMAP
0000
0000
0000
0400
0C00
3F80
0C00
0C00
0C00
0C80
0700
0000
0000
ENDCHAR
STARTCHAR u
ENCODING 117
SWIDTH 960 0
DWIDTH 12 0
BBX 12 13 0 -2
BITMAP
0000
0000
0000
0000
7380
3180
3180
3180
3180
3180
1EC0
0000
0000
ENDCHAR
STARTCHAR v
ENCODING 118
SWIDTH 960 0
DWIDTH 12 0
BBX 12 13 0 -2
BITMAP
0000
0000
0000
0000
78E0
3040
1880
1880
0D00
0F00
0600
0000
0000
ENDCHAR
STARTCHAR w
ENCODING 119
SWIDTH 960 0
DWIDTH 12 0
BBX 12 13 0 -2
BITMAP
0000
0000
0000
0000
76E0
7640
3640
3B80
3B80
1980
1980
0000
0000
ENDCHAR
STARTCHAR x
ENCODING 120
SWIDTH 960 0
DWIDTH 12 0
BBX 12 13 0 -2
BITMAP
0000
0000
0000
0000
39C0
1880
0D00
0600
0F00
1180
3BC0
0000
0000
ENDCHAR
STARTCHAR y
ENCODING 121
SWIDTH 960 0
DWIDTH 12 0
BBX 12 13 0 -2
BITMAP
0000
0000
0000
0000
7DC0
3080
1880
1900
0D00
0E00
6600
6400
3800
ENDCHAR
STARTCHAR z
ENCODING 122
SWIDTH 960 0
DWIDTH 12 0
BBX 12 13 0 -2
BITMAP
0000
0000
0000
0000
3FC0
2180
0300
0600
0C00
1840
3FC0
0000
0000
ENDCHAR
STARTCHAR braceleft
ENCODING 123
SWIDTH 960 0
DWIDTH 12 0
BBX 12 13 0 -2
BITMAP
0000
0180
0300
0300
0300
0200
0C00
0200
0300
0300
0300
0180
0000
ENDCHAR
STARTCHAR bar
ENCODING 124
SWIDTH 960 0
DWIDTH 12 0
BBX 12 13 0 -2
BITMAP
0000
0600
0600
0600
0600
0600
0600
0600
0600
0600
0600
0000
0000
ENDCHAR
STARTCHAR braceright
ENCODING 125
SWIDTH 960 0
DWIDTH 12 0
BBX 12 13 0 -2
BITMAP
0000
3000
1800
1800
1800
0800
0600
0800
1800
1800
1800
3000
0000
ENDCHAR
STARTCHAR asciitilde
ENCODING 126
SWIDTH 960 0
DWIDTH 12 0
BBX 12 13 0 -2
BITMAP
0000
1CC0
3380
0000
0000
0000
0000
0000
0000
0000
0000
0000
0000
ENDCHAR
STARTCHAR space
ENCODING 160
SWIDTH 960 0
DWIDTH 12 0
BBX 12 13 0 -2
BITMAP
0000
0000
0000
0000
0000
0000
0000
0000
0000
0000
0000
0000
0000
ENDCHAR
STARTCHAR cent
ENCODING 162
SWIDTH 960 0
DWIDTH 12 0
BBX 12 13 0 -2
BITMAP
0000
0000
0100
0100
0F00
1B80
32C0
3200
3400
1CC0
0F80
0800
0800
ENDCHAR
STARTCHAR sterling
ENCODING 163
SWIDTH 960 0
DWIDTH 12 0
BBX 12 13 0 -2
BITMAP
0000
0380
06C0
0CC0
0C00
0C00
3F80
0C00
3C20
4E40
3980
0000
0000
ENDCHAR
STARTCHAR currency
ENCODING 164
SWIDTH 960 0
DWIDTH 12 0
BBX 12 13 0 -2
BITMAP
0000
0000
60C0
3580
1F00
3180
3180
3180
1F00
3580
60C0
0000
0000
ENDCHAR
STARTCHAR yen
ENCODING 165
SWIDTH 960 0
DWIDTH 12 0
BBX 12 13 0 -2
BITMAP
0000
70E0
3040
1880
0C80
0D00
3FC0
0600
3FC0
0600
1F80
0000
0000
ENDCHAR
STARTCHAR brokenbar
ENCODING 166
SWIDTH 960 0
DWIDTH 12 0
BBX 12 13 0 -2
BITMAP
0000
0600
0600
0600
0600
0000
0000
0600
0600
0600
0600
0000
0000
ENDCHAR
STARTCHAR section
ENCODING 167
SWIDTH 960 0
DWIDTH 12 0
BBX 12 13 0 -2
BITMAP
0000
0E00
1100
1800
0C00
0E00
1300
1900
0E00
0600
1300
1100
0E00
ENDCHAR
STARTCHAR dieresis
ENCODING 168
SWIDTH 960 0
DWIDTH 12 0
BBX 12 13 0 -2
BITMAP
3180
3180
0000
0000
0000
0000
0000
0000
0000
0000
0000
0000
0000
ENDCHAR
STARTCHAR copyright
ENCODING 169
SWIDTH 960 0
DWIDTH 12 0
BBX 12 13 0 -2
BITMAP
0000
0000
1F80
2040
4F20
59A0
5820
59A0
4F20
2040
1F80
0000
0000
ENDCHAR
STARTCHAR multiply
ENCODING 170
SWIDTH 960 0
DWIDTH 12 0
BBX 12 13 0 -2
BITMAP
0000
0000
0000
0000
30C0
1980
0F00
0600
0F00
1980
30C0
0000
0000
ENDCHAR
STARTCHAR guillemotleft
ENCODING 171
SWIDTH 960 0
DWIDTH 12 0
BBX 12 13 0 -2
BITMAP
0000
0000
0000
0000
0480
0900
1B00
1B00
0900
0480
0000
0000
0000
ENDCHAR
STARTCHAR logicalnot
ENCODING 172
SWIDTH 960 0
DWIDTH 12 0
BBX 12 13 0 -2
BITMAP
0000
0000
0000
0000
0000
0000
3FC0
0040
0040
0040
0040
0000
0000
ENDCHAR
STARTCHAR hyphen
ENCODING 173
SWIDTH 960 0
DWIDTH 12 0
BBX 12 13 0 -2
BITMAP
0000
0000
0000
0000
0000
0000
3F80
0000
0000
0000
0000
0000
0000
ENDCHAR
STARTCHAR registered
ENCODING 174
SWIDTH 960 0
DWIDTH 12 0
BBX 12 13 0 -2
BITMAP
0000
0000
1F80
2040
5F20
59A0
5F20
5B20
59A0
2040
1F80
0000
0000
ENDCHAR
STARTCHAR macron
ENCODING 175
SWIDTH 960 0
DWIDTH 12 0
BBX 12 13 0 -2
BITMAP
0000
0000
3F80
0000
0000
0000
0000
0000
0000
0000
0000
0000
0000
ENDCHAR
STARTCHAR degree
ENCODING 176
SWIDTH 960 0
DWIDTH 12 0
BBX 12 13 0 -2
BITMAP
0000
0000
1800
2400
2400
1800
0000
0000
0000
0000
0000
0000
0000
ENDCHAR
STARTCHAR plusminus
ENCODING 177
SWIDTH 960 0
DWIDTH 12 0
BBX 12 13 0 -2
BITMAP
0000
0000
0400
0400
0400
7FC0
0400
0400
0400
0000
7FC0
0000
0000
ENDCHAR
STARTCHAR twosuperior
ENCODING 178
SWIDTH 960 0
DWIDTH 12 0
BBX 12 13 0 -2
BITMAP
1C00
2600
0600
0C00
1800
3000
3E00
0000
0000
0000
0000
0000
0000
ENDCHAR
STARTCHAR threesuperior
ENCODING 179
SWIDTH 960 0
DWIDTH 12 0
BBX 12 13 0 -2
BITMAP
1C00
3600
0600
0C00
0600
3600
1C00
0000
0000
0000
0000
0000
0000
ENDCHAR
STARTCHAR acute
ENCODING 180
SWIDTH 960 0
DWIDTH 12 0
BBX 12 13 0 -2
BITMAP
0000
0300
0600
0800
0000
0000
0000
0000
0000
0000
0000
0000
0000
ENDCHAR
STARTCHAR mu
ENCODING 181
SWIDTH 960 0
DWIDTH 12 0
BBX 12 13 0 -2
BITMAP
0000
0000
0000
0000
79E0
30C0
30C0
30C0
30C0
39C0
36E0
3000
7800
ENDCHAR
STARTCHAR paragraph
ENCODING 182
SWIDTH 960 0
DWIDTH 12 0
BBX 12 13 0 -2
BITMAP
0000
0000
1FC0
3D80
3D80
1D80
0D80
0D80
0D80
0D80
0D80
0000
0000
ENDCHAR
STARTCHAR periodcentered
ENCODING 183
SWIDTH 960 0
DWIDTH 12 0
BBX 12 13 0 -2
BITMAP
0000
0000
0000
0000
0000
0000
0600
0600
0000
0000
0000
0000
0000
ENDCHAR
STARTCHAR cedilla
ENCODING 184
SWIDTH 960 0
DWIDTH 12 0
BBX 12 13 0 -2
BITMAP
0000
0000
0000
0000
0000
0000
0000
0000
0000
0000
0000
0300
0E00
ENDCHAR
STARTCHAR onesuperior
ENCODING 185
SWIDTH 960 0
DWIDTH 12 0
BBX 12 13 0 -2
BITMAP
1800
3800
1800
1800
1800
1800
3C00
0000
0000
0000
0000
0000
0000
ENDCHAR
STARTCHAR divide
ENCODING 186
SWIDTH 960 0
DWIDTH 12 0
BBX 12 13 0 -2
BITMAP
0000
0000
0000
0000
0600
0600
0000
3FC0
0000
0600
0600
0000
0000
ENDCHAR
STARTCHAR guillemotright
ENCODING 187
SWIDTH 960 0
DWIDTH 12 0
BBX 12 13 0 -2
BITMAP
0000
0000
0000
0000
1200
0900
0D80
0D80
0900
1200
0000
0000
0000
ENDCHAR
STARTCHAR onequarter
ENCODING 188
SWIDTH 960 0
DWIDTH 12 0
BBX 12 13 0 -2
BITMAP
6100
E100
6200
6200
6400
65C0
F9C0
0BC0
12C0
16C0
27E0
20C0
0000
ENDCHAR
STARTCHAR onehalf
ENCODING 189
SWIDTH 960 0
DWIDTH 12 0
BBX 12 13 0 -2
BITMAP
6100
E100
6200
6200
6400
65C0
FA60
0860
10C0
1180
2300
23E0
0000
ENDCHAR
STARTCHAR threequarters
ENCODING 190
SWIDTH 960 0
DWIDTH 12 0
BBX 12 13 0 -2
BITMAP
6100
B100
3200
6200
3400
B5C0
69C0
0BC0
12C0
16C0
27E0
20C0
0000
ENDCHAR
STARTCHAR underscoredbl
ENCODING 223
SWIDTH 960 0
DWIDTH 12 0
BBX 12 13 0 -2
BITMAP
0000
0000
0000
0000
0000
0000
0000
0000
0000
0000
FFE0
0000
FFE0
ENDCHAR
STARTCHAR afii57664
ENCODING 224
SWIDTH 960 0
DWIDTH 12 0
BBX 12 13 0 -2
BITMAP
0000
4180
61C0
30C0
1900
3E00
4600
4300
2180
30C0
7040
0000
0000
ENDCHAR
STARTCHAR afii57665
ENCODING 225
SWIDTH 960 0
DWIDTH 12 0
BBX 12 13 0 -2
BITMAP
0000
4000
7F00
3F80
0080
0080
0080
0080
0080
3FC0
7F80
0000
0000
ENDCHAR
STARTCHAR afii57666
ENCODING 226
SWIDTH 960 0
DWIDTH 12 0
BBX 12 13 0 -2
BITMAP
0000
1000
1C00
0E00
0200
0200
0200
0200
0600
1F00
3980
0000
0000
ENDCHAR
STARTCHAR afii57667
ENCODING 227
SWIDTH 960 0
DWIDTH 12 0
BBX 12 13 0 -2
BITMAP
0000
4000
7FC0
3FC0
0080
0080
0080
0080
0080
0080
0080
0000
0000
ENDCHAR
STARTCHAR afii57668
ENCODING 228
SWIDTH 960 0
DWIDTH 12 0
BBX 12 13 0 -2
BITMAP
0000
4000
7FC0
3FC0
0080
0080
2080
2080
2080
2080
2080
0000
0000
ENDCHAR
STARTCHAR afii57669
ENCODING 229
SWIDTH 960 0
DWIDTH 12 0
BBX 12 13 0 -2
BITMAP
0000
1000
1C00
0E00
0200
0200
0200
0200
0200
0200
0200
0000
0000
ENDCHAR
STARTCHAR afii57670
ENCODING 230
SWIDTH 960 0
DWIDTH 12 0
BBX 12 13 0 -2
BITMAP
0000
2000
3C00
1E00
0800
0800
0800
0800
0800
0800
0800
0000
0000
ENDCHAR
STARTCHAR afii57671
ENCODING 231
SWIDTH 960 0
DWIDTH 12 0
BBX 12 13 0 -2
BITMAP
0000
4000
7FC0
3FC0
2080
2080
2080
2080
2080
2080
2080
0000
0000
ENDCHAR
STARTCHAR afii57672
ENCODING 232
SWIDTH 960 0
DWIDTH 12 0
BBX 12 13 0 -2
BITMAP
0000
4000
71C0
3BC0
2240
2040
2040
2040
20C0
3F80
3F00
0000
0000
ENDCHAR
STARTCHAR afii57673
ENCODING 233
SWIDTH 960 0
DWIDTH 12 0
BBX 12 13 0 -2
BITMAP
0000
2000
3800
1C00
0400
0400
0400
0000
0000
0000
0000
0000
0000
ENDCHAR
STARTCHAR afii57674
ENCODING 234
SWIDTH 960 0
DWIDTH 12 0
BBX 12 13 0 -2
BITMAP
0000
2000
3FC0
1FC0
0080
0080
0080
0080
0080
0080
0080
0080
0080
ENDCHAR
STARTCHAR afii57675
ENCODING 235
SWIDTH 960 0
DWIDTH 12 0
BBX 12 13 0 -2
BITMAP
0000
4000
7F80
3FC0
0040
0040
0040
0040
0040
3F80
7F00
0000
0000
ENDCHAR
STARTCHAR afii57676
ENCODING 236
SWIDTH 960 0
DWIDTH 12 0
BBX 12 13 0 -2
BITMAP
4000
2000
3FC0
1FC0
0040
0040
0040
0080
0100
0200
0C00
0000
0000
ENDCHAR
STARTCHAR afii57677
ENCODING 237
SWIDTH 960 0
DWIDTH 12 0
BBX 12 13 0 -2
BITMAP
0000
4000
7F80
3FC0
4040
4040
4040
4040
4040
7FC0
7FC0
0000
0000
ENDCHAR
STARTCHAR afii57678
ENCODING 238
SWIDTH 960 0
DWIDTH 12 0
BBX 12 13 0 -2
BITMAP
0000
4000
6F80
3FC0
2040
4040
4040
4040
4040
4FC0
5F80
0000
0000
ENDCHAR
STARTCHAR afii57679
ENCODING 239
SWIDTH 960 0
DWIDTH 12 0
BBX 12 13 0 -2
BITMAP
0000
0800
0F00
0700
0100
0100
0100
0100
0100
0100
0100
0100
0100
ENDCHAR
STARTCHAR afii57680
ENCODING 240
SWIDTH 960 0
DWIDTH 12 0
BBX 12 13 0 -2
BITMAP
0000
1000
1C00
0E00
0200
0200
0200
0200
0200
0E00
1C00
0000
0000
ENDCHAR
STARTCHAR afii57681
ENCODING 241
SWIDTH 960 0
DWIDTH 12 0
BBX 12 13 0 -2
BITMAP
0000
4000
7F80
3FC0
2040
2040
2040
2040
2040
3F80
1F00
0000
0000
ENDCHAR
STARTCHAR afii57682
ENCODING 242
SWIDTH 960 0
DWIDTH 12 0
BBX 12 13 0 -2
BITMAP
0000
4200
7380
39C0
2040
1040
0840
0440
0240
3F80
7F00
0000
0000
ENDCHAR
STARTCHAR afii57683
ENCODING 243
SWIDTH 960 0
DWIDTH 12 0
BBX 12 13 0 -2
BITMAP
0000
2000
3FC0
1FC0
2080
3080
3080
0080
0080
0080
0080
0080
0080
ENDCHAR
STARTCHAR afii57684
ENCODING 244
SWIDTH 960 0
DWIDTH 12 0
BBX 12 13 0 -2
BITMAP
0000
4000
7F80
3FC0
2040
3040
3040
0040
0040
7F80
7F00
0000
0000
ENDCHAR
STARTCHAR afii57685
ENCODING 245
SWIDTH 960 0
DWIDTH 12 0
BBX 12 13 0 -2
BITMAP
4100
71C0
30C0
1100
1200
1400
1800
1000
1000
1000
1000
1000
0000
ENDCHAR
STARTCHAR afii57686
ENCODING 246
SWIDTH 960 0
DWIDTH 12 0
BBX 12 13 0 -2
BITMAP
0000
4100
71C0
38C0
0900
0A00
0400
0200
0100
7FC0
7F80
0000
0000
ENDCHAR
STARTCHAR afii57687
ENCODING 247
SWIDTH 960 0
DWIDTH 12 0
BBX 12 13 0 -2
BITMAP
4000
7F80
3FC0
0040
1040
1040
1080
1100
1600
1400
1000
1000
0000
ENDCHAR
STARTCHAR afii57688
ENCODING 248
SWIDTH 960 0
DWIDTH 12 0
BBX 12 13 0 -2
BITMAP
0000
4000
7F80
3FC0
0040
0040
0040
0040
0040
0040
0040
0000
0000
ENDCHAR
STARTCHAR afii57689
ENCODING 249
SWIDTH 960 0
DWIDTH 12 0
BBX 12 13 0 -2
BITMAP
0000
4900
6DC0
6DC0
4440
4440
4C40
58C0
7080
7F80
7F00
0000
0000
ENDCHAR
STARTCHAR afii57690
ENCODING 250
SWIDTH 960 0
DWIDTH 12 0
BBX 12 13 0 -2
BITMAP
0000
4000
7F80
3FC0
1040
2040
2040
2040
1040
3040
7040
0000
0000
ENDCHAR
ENDFONT
